<?xml version="1.0" encoding="utf-8"?>
<!-- Generator: Adobe Illustrator 16.0.0, SVG Export Plug-In . SVG Version: 6.00 Build 0)  -->
<!DOCTYPE svg PUBLIC "-//W3C//DTD SVG 1.1//EN" "http://www.w3.org/Graphics/SVG/1.1/DTD/svg11.dtd">
<svg version="1.1" id="Layer_1" xmlns="http://www.w3.org/2000/svg" xmlns:xlink="http://www.w3.org/1999/xlink" x="0px" y="0px"
	 width="100.626px" height="125.007px" viewBox="0 0 100.626 125.007" enable-background="new 0 0 100.626 125.007"
	 xml:space="preserve">
<g>
	<g>
		<g>
			<path fill="#FFFFFF" d="M53.353,98.896l0.515-2.409c0.117-0.644,0.066-1.545,0.004-2.592c-0.054-0.949-0.117-2.024-0.064-3.172
				l0.01-0.208l1.436-1.189l0.293,0.43c0.597,0.879,1.242,1.706,1.913,2.453l0.204,0.229l-0.123,0.274
				c-0.778,1.768-1.781,3.371-2.978,4.771L53.353,98.896z M54.742,90.976c-0.035,1.02,0.022,1.997,0.074,2.865
				c0.034,0.612,0.066,1.178,0.066,1.692c0.636-0.908,1.194-1.887,1.672-2.927c-0.516-0.593-1.015-1.229-1.492-1.897L54.742,90.976z
				"/>
			<path fill="#FFFFFF" d="M50.476,101.061l-0.159-0.052c-1.099-0.373-3.178-1.749-3.173-4.286l0.001-0.467l6.827-0.018
				l-0.052,0.519c-0.013,0.13-0.34,3.156-3.289,4.247L50.476,101.061z M48.116,97.195c0.241,1.812,1.849,2.645,2.352,2.858
				c1.606-0.671,2.197-2.098,2.409-2.869L48.116,97.195z"/>
			<path fill="#FFFFFF" d="M54.255,80.908v-1.103c0-7.416,1.788-19.035,4.677-24.878l0.858-1.739l0.262,15.034l1.451,0.047
				l-0.335,0.66c-0.024,0.049-2.565,5.07-3.673,8.801l-0.036,0.123L54.255,80.908z M58.919,57.333
				c-2.191,5.757-3.562,14.855-3.707,21.358l1.414-1.348c0.915-3.021,2.649-6.698,3.374-8.179l-0.875-0.032L58.919,57.333z"/>
			<path fill="#FFFFFF" d="M38.695,72.508l0.26-2.202c0.001-0.057,0.046-1.17-1.307-3.344l-0.06-0.099
				c-1.926-3.002-5.71-5.393-8.667-5.458l-0.46-0.009V41.838l0.661,0.293c5.15,2.274,13.613,10.787,15.448,20.223l0.032,0.177
				L38.695,72.508z M38.516,66.579c0.619,1.013,0.964,1.822,1.154,2.431l3.938-6.651c-1.815-8.906-9.709-16.66-14.205-19.045v17.175
				c3.195,0.291,7.081,2.831,9.042,5.968L38.516,66.579z"/>
			<path fill="#FFFFFF" d="M45.098,61.991l-0.204-1.34c-0.798-5.238-2.646-9.556-4.428-13.732
				c-2.395-5.603-4.87-11.393-4.795-19.375c0.111-11.623,3.877-19.509,12.198-25.546l0.1-0.086L50.425,0l2.721,2.104
				c8.668,6.273,12.211,13.884,11.831,25.397c-0.257,7.819-2.509,13.536-4.689,19.066c-1.677,4.255-3.409,8.653-4.224,13.999
				l-0.185,1.222l-1.716-2.631v-0.141L54.21,17.37h-7.509l0.049,41.723L45.098,61.991z M55.105,58.878l0.227,0.348
				c0.891-4.912,2.509-9.019,4.077-13.002c2.249-5.708,4.375-11.099,4.624-18.754c0.372-11.245-3.106-18.646-11.632-24.742
				l-0.198-0.163l-1.775-1.371L48.533,2.68c-8.134,5.856-11.81,13.527-11.92,24.873c-0.072,7.788,2.255,13.229,4.718,18.995
				c1.658,3.881,3.37,7.884,4.271,12.655l0.205-0.36l-0.049-42.416h9.399L55.105,58.878z"/>
			<path fill="#FFFFFF" d="M18.108,80.927C18.108,80.927,18.108,80.927,18.108,80.927C11.106,80.927,0,75.617,0,61.365
				c0-11.756,9.077-20.623,21.115-20.623h0.47l0.047,21.247l-0.209,0.139c-2.239,1.517-3.24,4.319-3.24,6.426
				c0,1.79,0.47,3.245,1.399,4.323c2.1,1.957,4.629,2.375,6.375,2.375c1.438,0,2.45-0.281,2.46-0.286l1.505-0.425l-1.019,1.188
				c-1.461,1.704-4.323,3.99-7.574,4.82C20.338,80.8,19.255,80.927,18.108,80.927z M20.645,41.69
				C9.379,41.919,0.943,50.299,0.943,61.365c0,13.563,10.527,18.62,17.166,18.62l0,0c1.067,0,2.075-0.119,2.99-0.352
				c2.298-0.586,4.548-2.051,6.106-3.503c-0.364,0.038-0.787,0.065-1.248,0.065c-1.915,0-4.692-0.463-7.055-2.664
				c-1.116-1.295-1.664-2.956-1.664-4.979c0-2.29,1.069-5.325,3.45-7.061L20.645,41.69z"/>
			<path fill="#FFFFFF" d="M50.335,85l-3.342-4.213l-0.005-0.155c-0.017-0.681-0.025-1.369-0.036-2.062
				c-0.028-2.172-0.06-4.417-0.342-6.542l-0.029-0.199l3.467-4.395v0.006l0.42-0.536l0.433,0.543v-0.009l3.463,4.391l-0.025,0.199
				c-0.289,2.146-0.319,4.411-0.348,6.602c-0.009,0.674-0.019,1.342-0.035,2.003L53.952,80.8L50.335,85z M47.928,80.45l2.438,3.071
				l2.651-3.082c0.014-0.603,0.022-1.208,0.031-1.821c0.028-2.154,0.058-4.376,0.33-6.52l-2.907-3.675l-1.367,1.733V70.15
				l-1.534,1.95c0.269,2.121,0.297,4.321,0.327,6.455C47.905,79.193,47.914,79.824,47.928,80.45z"/>
			<path fill="#FFFFFF" d="M46.791,80.932l-0.803-0.79c-0.255-0.251-0.469-0.517-0.672-0.832l-1.23-1.521l0.009-0.18
				c0.026-0.591,0-1.872,0-1.885l-0.004-0.15l2.256-3.294l0.167,1.845c0.183,2.071,0.276,3.983,0.276,5.681V80.932z M45.043,77.473
				l0.784,0.974c-0.028-1.085-0.093-2.24-0.188-3.465l-0.6,0.875C45.046,76.183,45.056,76.952,45.043,77.473z"/>
			<polygon fill="#FFFFFF" points="72.637,78.276 70.096,74.667 72.637,75.281 			"/>
			<path fill="#FFFFFF" d="M82.507,80.922L82.507,80.922c-1.14,0-2.218-0.125-3.207-0.371l-0.363-0.092l0.076-6.124l0.275-0.12
				c1.179-0.523,3.156-1.955,3.156-5.661c0-2.979-2.742-7.481-6.875-7.481l-0.089-0.004c-0.005-0.002-0.573-0.11-1.494-0.11
				c-1.537,0-3.898,0.284-6.424,1.64l-0.695,0.372l0.022-12.282c0.181-2.996,2.201-6.521,4.724-8.168
				c1.861-1.212,4.504-1.777,8.322-1.777c11.99,0,20.691,8.673,20.691,20.623c0,7.826-3.359,12.451-6.178,14.952
				C91.199,79.2,86.736,80.922,82.507,80.922z M79.891,79.719c0.814,0.172,1.691,0.26,2.616,0.26l0,0
				c4.006,0,8.236-1.631,11.315-4.366c2.675-2.375,5.862-6.772,5.862-14.247c0-11.402-8.304-19.677-19.749-19.677
				c-3.628,0-6.108,0.514-7.808,1.621c-2.349,1.532-4.281,5.008-4.308,7.747l-0.009,0.357v10.002
				c2.434-1.146,4.675-1.399,6.175-1.399c0.875,0,1.458,0.087,1.626,0.114c4.677,0.031,7.776,5.079,7.776,8.423
				c0,3.968-2.042,5.681-3.44,6.39L79.891,79.719z"/>
			<path fill="#FFFFFF" d="M50.476,125.007l-0.302-0.249c-0.244-0.205-5.994-5.094-6.555-12.936c-0.101-1.397,0.08-3.28,0.551-5.757
				l0.168-0.888l0.632,0.646c1.873,1.915,4.677,3.798,5.533,4.356c0.926-0.632,4.127-2.86,5.437-4.34l0.64-0.719l0.178,0.943
				c0.254,1.352,0.73,3.858,0.551,5.769c-0.755,8.081-6.295,12.73-6.531,12.926L50.476,125.007z M44.938,107.112
				c-0.339,1.966-0.463,3.491-0.381,4.642c0.461,6.443,4.737,10.892,5.919,12.005c1.154-1.086,5.273-5.392,5.892-12.014
				c0.133-1.428-0.136-3.269-0.375-4.612c-1.859,1.753-5.072,3.905-5.226,4.008l-0.255,0.167l-0.257-0.163
				C50.122,111.062,47.198,109.216,44.938,107.112z"/>
			<path fill="#FFFFFF" d="M65.062,106.318H65.05c-2.818-0.036-4.932-0.687-6.856-2.111l-0.437-0.326l0.383-0.387
				c0.036-0.036,3.647-3.72,4.828-6.963l0.114-0.311l0.49,0.021c0.438,0.136,1.002,0.212,1.59,0.212c2.57,0,5.587-1.345,5.625-5.133
				l0.011-1.157l0.801,0.835c0.065,0.069,1.574,1.667,2.308,4.247c0.412,1.232,0.532,2.539,0.349,3.713
				c-0.74,4.743-3.829,7.22-9.186,7.36H65.062z M59.194,103.756c1.639,1.084,3.473,1.587,5.861,1.621
				c4.896-0.133,7.603-2.279,8.269-6.564c0.161-1.028,0.054-2.178-0.299-3.236L73,95.498c-0.358-1.255-0.926-2.266-1.378-2.938
				c-0.622,3.544-3.751,4.836-6.459,4.836c-0.521,0-1.018-0.05-1.46-0.147C62.586,99.953,60.143,102.731,59.194,103.756z"/>
			<path fill="#FFFFFF" d="M35.817,106.318h-0.075l-0.035-0.474l-0.046,0.474h-0.067c-3.915-0.103-8.058-1.056-9.193-7.352
				c-0.691-3.822,2.491-7.771,2.625-7.939l0.931-1.139l-0.095,1.468c-0.08,1.245,0.371,2.462,1.271,3.421
				c1.039,1.109,2.522,1.721,4.175,1.721c1.922,0,5.745-0.877,9.744-6.743l0.293-0.43l1.435,1.189l0.01,0.208
				c0.052,1.147-0.01,2.223-0.065,3.172c-0.061,1.047-0.113,1.948,0.01,2.604c0.181,0.968,0.399,1.925,0.773,2.366l0.271,0.32
				l-0.51,0.552c-0.702,0.768-2.35,2.567-3.315,3.393c-2.298,2.19-4.736,3.149-8.134,3.189H35.817z M35.707,105.372h0.067
				l0.039,0.475l-0.005-0.47c3.18-0.04,5.358-0.895,7.515-2.947c0.927-0.795,2.573-2.59,3.223-3.302
				c-0.335-0.584-0.544-1.415-0.739-2.458c-0.144-0.768-0.089-1.723-0.023-2.829c0.051-0.868,0.108-1.846,0.074-2.865l-0.319-0.267
				c-4.145,5.845-8.17,6.732-10.23,6.732c-1.916,0-3.644-0.719-4.861-2.02c-0.744-0.791-1.232-1.731-1.433-2.733
				c-0.858,1.362-2.099,3.818-1.685,6.113c1.063,5.896,4.83,6.483,8.277,6.575L35.707,105.372z"/>
		</g>
	</g>
	<g>
		<path fill="#FFFFFF" d="M60.969,67.259c2.371-0.305,3.46,1.264,3.579,2.697c0.101,1.279-0.546,2.385-1.369,3.219
			c0.707,1.248,1.63,3.318,2.093,4.634c2.617-1.48,4.055-4.119,4.055-7.859c0-2.777-2.058-5.533-3.601-6.308V50.968
			c0-3.104,2.402-8.698,7.596-10.806c1.666-0.581,2.934-0.791,4.737-0.791v-4.896c-6.56,0.143-11.302,3.395-13.825,7.224
			c-2.203,3.339-3.265,7.329-3.265,12.205V67.259L60.969,67.259z"/>
		<path fill="#FFFFFF" d="M73.314,83.423l-13.339-0.038l-0.051,2.442l-2.365,2.217h20.488l0.011-25.235
			c-1.053-1.363-4.744-0.882-4.744-0.882V83.423L73.314,83.423z"/>
		<path fill="#FFFFFF" d="M37.205,68.111c-0.956-1.468-1.959-2.4-3.336-3.456c-1.498,1.461-2.337,3.71-2.312,5.636
			c-0.155,5.487,4.663,8.533,7.294,10.982c1.499,1.397,7.758,7.51,8.919,8.678v5.417h5.418v-5.417
			c1.396-1.4,3.819-3.621,5.161-5.055c-0.097-2.444-0.56-3.694-1.224-5.477l-6.667,6.624l-7.923-7.882
			c-2.625-2.612-6.225-5.153-6.15-7.799C36.413,69.487,36.657,68.702,37.205,68.111L37.205,68.111z"/>
		<path fill="#FFFFFF" d="M50.464,108.941c5.155-3.195,12.699-10.749,13.99-19.532h-4.976c-1.422,6.516-4.917,10.535-9.014,12.91
			c-0.911-0.534-1.885-1.217-2.691-1.87c-1.083,1.257-2.115,2.36-3.385,3.536C46.412,105.9,48.831,108.077,50.464,108.941
			L50.464,108.941z"/>
		<path fill="#FFFFFF" d="M36.164,85.578c0.02,3.756,0.719,6.439,2.035,9.602c1.894-0.649,2.808-1.872,4.056-2.869
			c-0.838-2.323-1.081-4.256-1.304-7.047l-4.355-3.88C36.345,82.933,36.164,83.924,36.164,85.578L36.164,85.578z"/>
		<path fill="#FFFFFF" d="M22.645,81.054v6.972h12.125c-0.207-1.491-0.258-3.038,0.004-4.634h-7.392l0.01-4.654L22.645,81.054
			L22.645,81.054z"/>
		<path fill="#FFFFFF" d="M22.645,73.574c2.03,1.416,4.742,0.604,4.742,0.604l0.004-34.05c3.079,1.154,7.754,3.075,12.42,10.276
			c-0.062-0.744-0.104-1.985-0.298-2.575c-0.218-0.672-0.649-1.483-1.251-2.731c-0.968-2.009-1.501-3.766-3.943-5.983
			c-2.4-2.178-6.505-4.611-11.674-4.64V73.574L22.645,73.574z"/>
		<path fill="#FFFFFF" d="M47.763,59.496c-0.927,1.592-6.108,8.913-8.241,13.513l3.553,3.507c1.933-4.043,4.104-7.479,7.116-10.758
			l0.569,0.005c1.224,1.34,2.392,2.738,3.388,4.303c0.25-2.18,0.846-5.523,1.212-7.303c-0.736-1.25-1.664-2.415-2.175-3.267V18.379
			h-5.422V59.496L47.763,59.496z"/>
		<path fill="#FFFFFF" d="M58.26,77.316c0.62,1.521,1.112,3.066,1.48,4.682l4.688-0.005c-0.465-2.956-1.764-6.627-3.698-10.29
			C59.588,73.195,58.735,75.617,58.26,77.316L58.26,77.316z"/>
		<path fill="#FFFFFF" d="M58.26,77.316"/>
	</g>
</g>
</svg>
